<svg xmlns="http://www.w3.org/2000/svg" xmlns:xlink="http://www.w3.org/1999/xlink" width="348" zoomAndPan="magnify" viewBox="0 0 261 390.749986" height="521" preserveAspectRatio="xMidYMid meet" version="1.0"><defs><clipPath id="698cb97694"><path d="M 27.78125 74.148438 L 232.753906 74.148438 L 232.753906 89.675781 L 27.78125 89.675781 Z M 27.78125 74.148438 " clip-rule="nonzero"/></clipPath><clipPath id="b7a45a72bc"><path d="M 0.78125 0.148438 L 205.753906 0.148438 L 205.753906 15.675781 L 0.78125 15.675781 Z M 0.78125 0.148438 " clip-rule="nonzero"/></clipPath><clipPath id="a19fd829fa"><rect x="0" width="206" y="0" height="16"/></clipPath><clipPath id="117531b5c2"><path d="M 208.6875 6.425781 L 250.320312 6.425781 L 250.320312 80 L 208.6875 80 Z M 208.6875 6.425781 " clip-rule="nonzero"/></clipPath><clipPath id="82bc8cd813"><path d="M 204.214844 72.472656 L 234.222656 4.980469 L 254.597656 14.039062 L 224.589844 81.535156 Z M 204.214844 72.472656 " clip-rule="nonzero"/></clipPath><clipPath id="b125f8d8d9"><path d="M 223.28125 40.230469 C 225.007812 27.425781 226.621094 14.871094 237.917969 6.621094 L 250.011719 12.003906 C 238.804688 20.742188 237.148438 33.738281 235.535156 46.285156 C 233.800781 59.089844 232.1875 71.644531 220.898438 79.890625 L 208.796875 74.507812 C 220.011719 65.765625 221.667969 52.777344 223.28125 40.230469 Z M 223.28125 40.230469 " clip-rule="nonzero"/></clipPath><clipPath id="9a48993ce3"><path d="M 204.214844 72.472656 L 234.222656 4.980469 L 254.597656 14.039062 L 224.589844 81.535156 Z M 204.214844 72.472656 " clip-rule="nonzero"/></clipPath><clipPath id="c1c6496ecb"><path d="M 223.28125 40.230469 C 225.007812 27.425781 226.621094 14.871094 237.917969 6.621094 L 250.011719 12.003906 C 238.804688 20.742188 237.148438 33.738281 235.535156 46.285156 C 233.800781 59.089844 232.1875 71.644531 220.898438 79.890625 L 208.796875 74.507812 C 220.011719 65.765625 221.667969 52.777344 223.28125 40.230469 Z M 223.28125 40.230469 " clip-rule="nonzero"/></clipPath><clipPath id="5f2f1480a3"><path d="M 197.335938 0.113281 L 258.859375 0.113281 L 258.859375 19.09375 L 197.335938 19.09375 Z M 197.335938 0.113281 " clip-rule="nonzero"/></clipPath><clipPath id="064e492301"><path d="M 243.460938 0.113281 L 197.335938 0.113281 L 197.335938 19.09375 L 243.460938 19.09375 L 258.832031 9.605469 Z M 243.460938 0.113281 " clip-rule="nonzero"/></clipPath><clipPath id="4d18057006"><path d="M 243.460938 0.113281 L 197.335938 0.113281 L 197.335938 19.09375 L 243.460938 19.09375 L 258.832031 9.605469 Z M 243.460938 0.113281 " clip-rule="nonzero"/></clipPath><clipPath id="7dce98e640"><path d="M 0.0820312 0 L 63.042969 0 L 63.042969 83 L 0.0820312 83 Z M 0.0820312 0 " clip-rule="nonzero"/></clipPath><clipPath id="64ca81ae93"><path d="M 10.175781 6.425781 L 51.808594 6.425781 L 51.808594 80 L 10.175781 80 Z M 10.175781 6.425781 " clip-rule="nonzero"/></clipPath><clipPath id="ddf436383e"><path d="M 56.28125 72.472656 L 26.273438 4.980469 L 5.898438 14.039062 L 35.90625 81.535156 Z M 56.28125 72.472656 " clip-rule="nonzero"/></clipPath><clipPath id="a5f1dc4222"><path d="M 37.214844 40.230469 C 35.488281 27.425781 33.871094 14.871094 22.578125 6.621094 L 10.484375 12.003906 C 21.6875 20.742188 23.347656 33.738281 24.960938 46.285156 C 26.695312 59.089844 28.308594 71.644531 39.597656 79.890625 L 51.695312 74.507812 C 40.484375 65.765625 38.828125 52.777344 37.214844 40.230469 Z M 37.214844 40.230469 " clip-rule="nonzero"/></clipPath><clipPath id="f25c49da84"><path d="M 56.28125 72.472656 L 26.273438 4.980469 L 5.898438 14.039062 L 35.90625 81.535156 Z M 56.28125 72.472656 " clip-rule="nonzero"/></clipPath><clipPath id="fe159a7569"><path d="M 37.214844 40.230469 C 35.488281 27.425781 33.871094 14.871094 22.578125 6.621094 L 10.484375 12.003906 C 21.6875 20.742188 23.347656 33.738281 24.960938 46.285156 C 26.695312 59.089844 28.308594 71.644531 39.597656 79.890625 L 51.695312 74.507812 C 40.484375 65.765625 38.828125 52.777344 37.214844 40.230469 Z M 37.214844 40.230469 " clip-rule="nonzero"/></clipPath><clipPath id="90a6311ee6"><path d="M 1.636719 0.113281 L 63.042969 0.113281 L 63.042969 19.09375 L 1.636719 19.09375 Z M 1.636719 0.113281 " clip-rule="nonzero"/></clipPath><clipPath id="1ff15f5aaa"><path d="M 17.035156 0.113281 L 63.160156 0.113281 L 63.160156 19.09375 L 17.035156 19.09375 L 1.664062 9.605469 Z M 17.035156 0.113281 " clip-rule="nonzero"/></clipPath><clipPath id="412b8a00d4"><path d="M 17.035156 0.113281 L 63.160156 0.113281 L 63.160156 19.09375 L 17.035156 19.09375 L 1.664062 9.605469 Z M 17.035156 0.113281 " clip-rule="nonzero"/></clipPath><clipPath id="1ae98946db"><rect x="0" width="64" y="0" height="83"/></clipPath><clipPath id="91fa407b24"><path d="M 40.035156 0 L 204.484375 0 L 204.484375 19.132812 L 40.035156 19.132812 Z M 40.035156 0 " clip-rule="nonzero"/></clipPath><clipPath id="41ff23aeed"><path d="M 0.0351562 0 L 164.484375 0 L 164.484375 19.132812 L 0.0351562 19.132812 Z M 0.0351562 0 " clip-rule="nonzero"/></clipPath><clipPath id="df5eb05d99"><rect x="0" width="165" y="0" height="20"/></clipPath><clipPath id="2ab4b73cb6"><path d="M 49.574219 0 L 112.53125 0 L 112.53125 83 L 49.574219 83 Z M 49.574219 0 " clip-rule="nonzero"/></clipPath><clipPath id="e7cf68dc5c"><path d="M 10.664062 6.425781 L 52.296875 6.425781 L 52.296875 80 L 10.664062 80 Z M 10.664062 6.425781 " clip-rule="nonzero"/></clipPath><clipPath id="cbf760820a"><path d="M 56.769531 72.472656 L 26.761719 4.980469 L 6.386719 14.039062 L 36.394531 81.535156 Z M 56.769531 72.472656 " clip-rule="nonzero"/></clipPath><clipPath id="f5afd3c0bd"><path d="M 37.703125 40.230469 C 35.976562 27.425781 34.363281 14.871094 23.066406 6.621094 L 10.972656 12.003906 C 22.179688 20.742188 23.835938 33.738281 25.449219 46.285156 C 27.183594 59.089844 28.796875 71.644531 40.085938 79.890625 L 52.1875 74.507812 C 40.972656 65.765625 39.316406 52.777344 37.703125 40.230469 Z M 37.703125 40.230469 " clip-rule="nonzero"/></clipPath><clipPath id="4714f9b8a2"><path d="M 56.769531 72.472656 L 26.761719 4.980469 L 6.386719 14.039062 L 36.394531 81.535156 Z M 56.769531 72.472656 " clip-rule="nonzero"/></clipPath><clipPath id="fb79af6b9a"><path d="M 37.703125 40.230469 C 35.976562 27.425781 34.363281 14.871094 23.066406 6.621094 L 10.972656 12.003906 C 22.179688 20.742188 23.835938 33.738281 25.449219 46.285156 C 27.183594 59.089844 28.796875 71.644531 40.085938 79.890625 L 52.1875 74.507812 C 40.972656 65.765625 39.316406 52.777344 37.703125 40.230469 Z M 37.703125 40.230469 " clip-rule="nonzero"/></clipPath><clipPath id="b940c7e970"><path d="M 2.125 0.113281 L 63.53125 0.113281 L 63.53125 19.09375 L 2.125 19.09375 Z M 2.125 0.113281 " clip-rule="nonzero"/></clipPath><clipPath id="4d2cf1306c"><path d="M 17.523438 0.113281 L 63.648438 0.113281 L 63.648438 19.09375 L 17.523438 19.09375 L 2.152344 9.605469 Z M 17.523438 0.113281 " clip-rule="nonzero"/></clipPath><clipPath id="9388ef7b45"><path d="M 17.523438 0.113281 L 63.648438 0.113281 L 63.648438 19.09375 L 17.523438 19.09375 L 2.152344 9.605469 Z M 17.523438 0.113281 " clip-rule="nonzero"/></clipPath><clipPath id="f6f76049e9"><rect x="0" width="64" y="0" height="83"/></clipPath><clipPath id="99f74aa649"><path d="M 159.257812 6.425781 L 200.890625 6.425781 L 200.890625 80 L 159.257812 80 Z M 159.257812 6.425781 " clip-rule="nonzero"/></clipPath><clipPath id="09be18027c"><path d="M 154.785156 72.472656 L 184.792969 4.980469 L 205.167969 14.039062 L 175.160156 81.535156 Z M 154.785156 72.472656 " clip-rule="nonzero"/></clipPath><clipPath id="6c541ec91b"><path d="M 173.851562 40.230469 C 175.578125 27.425781 177.195312 14.871094 188.488281 6.621094 L 200.582031 12.003906 C 189.378906 20.742188 187.71875 33.738281 186.105469 46.285156 C 184.371094 59.089844 182.757812 71.644531 171.46875 79.890625 L 159.371094 74.507812 C 170.582031 65.765625 172.238281 52.777344 173.851562 40.230469 Z M 173.851562 40.230469 " clip-rule="nonzero"/></clipPath><clipPath id="3b938e6ff5"><path d="M 154.785156 72.472656 L 184.792969 4.980469 L 205.167969 14.039062 L 175.160156 81.535156 Z M 154.785156 72.472656 " clip-rule="nonzero"/></clipPath><clipPath id="d967b4a3f5"><path d="M 173.851562 40.230469 C 175.578125 27.425781 177.195312 14.871094 188.488281 6.621094 L 200.582031 12.003906 C 189.378906 20.742188 187.71875 33.738281 186.105469 46.285156 C 184.371094 59.089844 182.757812 71.644531 171.46875 79.890625 L 159.371094 74.507812 C 170.582031 65.765625 172.238281 52.777344 173.851562 40.230469 Z M 173.851562 40.230469 " clip-rule="nonzero"/></clipPath><clipPath id="ac2e94b957"><path d="M 147.90625 0.113281 L 209.429688 0.113281 L 209.429688 19.09375 L 147.90625 19.09375 Z M 147.90625 0.113281 " clip-rule="nonzero"/></clipPath><clipPath id="c7cdae3278"><path d="M 194.03125 0.113281 L 147.90625 0.113281 L 147.90625 19.09375 L 194.03125 19.09375 L 209.402344 9.605469 Z M 194.03125 0.113281 " clip-rule="nonzero"/></clipPath><clipPath id="60007ccf84"><path d="M 194.03125 0.113281 L 147.90625 0.113281 L 147.90625 19.09375 L 194.03125 19.09375 L 209.402344 9.605469 Z M 194.03125 0.113281 " clip-rule="nonzero"/></clipPath><clipPath id="899d5c91dc"><path d="M 117.144531 21.28125 L 143.417969 21.28125 L 143.417969 390.027344 L 117.144531 390.027344 Z M 117.144531 21.28125 " clip-rule="nonzero"/></clipPath><clipPath id="9682f206c3"><path d="M 0.144531 0.28125 L 26.417969 0.28125 L 26.417969 369.027344 L 0.144531 369.027344 Z M 0.144531 0.28125 " clip-rule="nonzero"/></clipPath><clipPath id="6085ca0494"><rect x="0" width="27" y="0" height="370"/></clipPath></defs><g clip-path="url(#698cb97694)"><g transform="matrix(1, 0, 0, 1, 27, 74)"><g clip-path="url(#a19fd829fa)"><g clip-path="url(#b7a45a72bc)"><path fill="#000000" d="M 205.753906 0.148438 L 205.753906 15.675781 L 0.78125 15.675781 L 0.78125 0.148438 Z M 205.753906 0.148438 " fill-opacity="1" fill-rule="nonzero"/></g></g></g></g><g clip-path="url(#117531b5c2)"><g clip-path="url(#82bc8cd813)"><g clip-path="url(#b125f8d8d9)"><g clip-path="url(#9a48993ce3)"><g clip-path="url(#c1c6496ecb)"><path fill="#000000" d="M 204.214844 72.472656 L 234.222656 4.980469 L 254.597656 14.039062 L 224.589844 81.535156 Z M 204.214844 72.472656 " fill-opacity="1" fill-rule="nonzero"/></g></g></g></g></g><g clip-path="url(#5f2f1480a3)"><g clip-path="url(#064e492301)"><g clip-path="url(#4d18057006)"><path fill="#000000" d="M 197.335938 0.113281 L 258.859375 0.113281 L 258.859375 19.09375 L 197.335938 19.09375 Z M 197.335938 0.113281 " fill-opacity="1" fill-rule="nonzero"/></g></g></g><g clip-path="url(#7dce98e640)"><g><g clip-path="url(#1ae98946db)"><g clip-path="url(#64ca81ae93)"><g clip-path="url(#ddf436383e)"><g clip-path="url(#a5f1dc4222)"><g clip-path="url(#f25c49da84)"><g clip-path="url(#fe159a7569)"><path fill="#000000" d="M 56.28125 72.472656 L 26.273438 4.980469 L 5.898438 14.039062 L 35.90625 81.535156 Z M 56.28125 72.472656 " fill-opacity="1" fill-rule="nonzero"/></g></g></g></g></g><g clip-path="url(#90a6311ee6)"><g clip-path="url(#1ff15f5aaa)"><g clip-path="url(#412b8a00d4)"><path fill="#000000" d="M 63.160156 0.113281 L 1.636719 0.113281 L 1.636719 19.09375 L 63.160156 19.09375 Z M 63.160156 0.113281 " fill-opacity="1" fill-rule="nonzero"/></g></g></g></g></g></g><g clip-path="url(#91fa407b24)"><g transform="matrix(1, 0, 0, 1, 40, 0)"><g clip-path="url(#df5eb05d99)"><g clip-path="url(#41ff23aeed)"><path fill="#000000" d="M 0.0351562 0 L 164.464844 0 L 164.464844 19.132812 L 0.0351562 19.132812 Z M 0.0351562 0 " fill-opacity="1" fill-rule="nonzero"/></g></g></g></g><g clip-path="url(#2ab4b73cb6)"><g transform="matrix(1, 0, 0, 1, 49, 0)"><g clip-path="url(#f6f76049e9)"><g clip-path="url(#e7cf68dc5c)"><g clip-path="url(#cbf760820a)"><g clip-path="url(#f5afd3c0bd)"><g clip-path="url(#4714f9b8a2)"><g clip-path="url(#fb79af6b9a)"><path fill="#000000" d="M 56.769531 72.472656 L 26.761719 4.980469 L 6.386719 14.039062 L 36.394531 81.535156 Z M 56.769531 72.472656 " fill-opacity="1" fill-rule="nonzero"/></g></g></g></g></g><g clip-path="url(#b940c7e970)"><g clip-path="url(#4d2cf1306c)"><g clip-path="url(#9388ef7b45)"><path fill="#000000" d="M 63.648438 0.113281 L 2.125 0.113281 L 2.125 19.09375 L 63.648438 19.09375 Z M 63.648438 0.113281 " fill-opacity="1" fill-rule="nonzero"/></g></g></g></g></g></g><g clip-path="url(#99f74aa649)"><g clip-path="url(#09be18027c)"><g clip-path="url(#6c541ec91b)"><g clip-path="url(#3b938e6ff5)"><g clip-path="url(#d967b4a3f5)"><path fill="#000000" d="M 154.785156 72.472656 L 184.792969 4.980469 L 205.167969 14.039062 L 175.160156 81.535156 Z M 154.785156 72.472656 " fill-opacity="1" fill-rule="nonzero"/></g></g></g></g></g><g clip-path="url(#ac2e94b957)"><g clip-path="url(#c7cdae3278)"><g clip-path="url(#60007ccf84)"><path fill="#000000" d="M 147.90625 0.113281 L 209.429688 0.113281 L 209.429688 19.09375 L 147.90625 19.09375 Z M 147.90625 0.113281 " fill-opacity="1" fill-rule="nonzero"/></g></g></g><g clip-path="url(#899d5c91dc)"><g transform="matrix(1, 0, 0, 1, 117, 21)"><g clip-path="url(#6085ca0494)"><g clip-path="url(#9682f206c3)"><path fill="#000000" d="M 0.144531 0.28125 L 26.417969 0.28125 L 26.417969 369.027344 L 0.144531 369.027344 Z M 0.144531 0.28125 " fill-opacity="1" fill-rule="nonzero"/></g></g></g></g></svg>