<svg xmlns="http://www.w3.org/2000/svg" xmlns:xlink="http://www.w3.org/1999/xlink" width="348" zoomAndPan="magnify" viewBox="0 0 261 188.249992" height="251" preserveAspectRatio="xMidYMid meet" version="1.0"><defs><clipPath id="3b2ad4c46d"><path d="M 116.011719 23.425781 L 144.578125 23.425781 L 144.578125 187.351562 L 116.011719 187.351562 Z M 116.011719 23.425781 " clip-rule="nonzero"/></clipPath><clipPath id="e051c3d852"><path d="M 0.0117188 0.425781 L 28.578125 0.425781 L 28.578125 164.351562 L 0.0117188 164.351562 Z M 0.0117188 0.425781 " clip-rule="nonzero"/></clipPath><clipPath id="a1d725916c"><rect x="0" width="29" y="0" height="165"/></clipPath><clipPath id="947a538ff9"><path d="M 0.519531 69.773438 L 259.984375 69.773438 L 259.984375 86.652344 L 0.519531 86.652344 Z M 0.519531 69.773438 " clip-rule="nonzero"/></clipPath><clipPath id="afbf79c354"><path d="M 0.519531 0.773438 L 259.984375 0.773438 L 259.984375 17.652344 L 0.519531 17.652344 Z M 0.519531 0.773438 " clip-rule="nonzero"/></clipPath><clipPath id="c567c69ca0"><rect x="0" width="260" y="0" height="18"/></clipPath><clipPath id="0af8a6178c"><path d="M 23.082031 66.347656 L 237.496094 66.347656 L 237.496094 90.085938 L 23.082031 90.085938 Z M 23.082031 66.347656 " clip-rule="nonzero"/></clipPath><clipPath id="39b3b7d6e8"><path d="M 0.0820312 0.347656 L 214.496094 0.347656 L 214.496094 24.085938 L 0.0820312 24.085938 Z M 0.0820312 0.347656 " clip-rule="nonzero"/></clipPath><clipPath id="fc90f5b6b6"><rect x="0" width="215" y="0" height="25"/></clipPath><clipPath id="b35d7226f0"><path d="M 41.648438 86.65625 L 219 86.65625 L 219 157.164062 L 41.648438 157.164062 Z M 41.648438 86.65625 " clip-rule="nonzero"/></clipPath><clipPath id="5a8b29b32e"><path d="M 130.292969 157.164062 C 81.335938 157.164062 41.648438 125.597656 41.648438 86.65625 L 218.9375 86.65625 C 218.9375 125.597656 179.25 157.164062 130.292969 157.164062 Z M 130.292969 157.164062 " clip-rule="nonzero"/></clipPath><clipPath id="17caf965ec"><path d="M 0.648438 0.65625 L 178 0.65625 L 178 71.164062 L 0.648438 71.164062 Z M 0.648438 0.65625 " clip-rule="nonzero"/></clipPath><clipPath id="611ee2af5c"><path d="M 89.292969 71.164062 C 40.335938 71.164062 0.648438 39.597656 0.648438 0.65625 L 177.9375 0.65625 C 177.9375 39.597656 138.25 71.164062 89.292969 71.164062 Z M 89.292969 71.164062 " clip-rule="nonzero"/></clipPath><clipPath id="937f5aefca"><rect x="0" width="178" y="0" height="72"/></clipPath><clipPath id="41224066a2"><path d="M 29 78 L 100 78 L 100 117 L 29 117 Z M 29 78 " clip-rule="nonzero"/></clipPath><clipPath id="9183f8e4d8"><path d="M 29.730469 78.21875 L 99.320312 94.515625 L 92.632812 123.066406 L 23.042969 106.769531 Z M 29.730469 78.21875 " clip-rule="nonzero"/></clipPath><clipPath id="0f0622ffd4"><path d="M 57.816406 114.910156 C 38.613281 110.414062 26.039062 93.984375 29.730469 78.21875 L 99.277344 94.507812 C 95.585938 110.273438 77.023438 119.410156 57.816406 114.910156 Z M 57.816406 114.910156 " clip-rule="nonzero"/></clipPath><clipPath id="bf4751ca34"><path d="M 0 0.167969 L 70.484375 0.167969 L 70.484375 39 L 0 39 Z M 0 0.167969 " clip-rule="nonzero"/></clipPath><clipPath id="86a1720337"><path d="M 0.730469 0.21875 L 70.320312 16.515625 L 63.632812 45.066406 L -5.957031 28.769531 Z M 0.730469 0.21875 " clip-rule="nonzero"/></clipPath><clipPath id="321b48f498"><path d="M 28.816406 36.910156 C 9.613281 32.414062 -2.960938 15.984375 0.730469 0.21875 L 70.277344 16.507812 C 66.585938 32.273438 48.023438 41.410156 28.816406 36.910156 Z M 28.816406 36.910156 " clip-rule="nonzero"/></clipPath><clipPath id="f0cf099315"><rect x="0" width="71" y="0" height="39"/></clipPath><clipPath id="0d73626833"><path d="M 161 78 L 232 78 L 232 117 L 161 117 Z M 161 78 " clip-rule="nonzero"/></clipPath><clipPath id="02c554188c"><path d="M 161.265625 94.5 L 230.847656 78.179688 L 237.542969 106.726562 L 167.960938 123.046875 Z M 161.265625 94.5 " clip-rule="nonzero"/></clipPath><clipPath id="812a9f3794"><path d="M 202.730469 114.890625 C 183.527344 119.394531 164.964844 110.265625 161.265625 94.5 L 230.804688 78.1875 C 234.503906 93.953125 221.933594 110.386719 202.730469 114.890625 Z M 202.730469 114.890625 " clip-rule="nonzero"/></clipPath><clipPath id="f9f11e3fd5"><path d="M 0.15625 0.167969 L 71 0.167969 L 71 39 L 0.15625 39 Z M 0.15625 0.167969 " clip-rule="nonzero"/></clipPath><clipPath id="43294ff817"><path d="M 0.265625 16.5 L 69.847656 0.179688 L 76.542969 28.726562 L 6.960938 45.046875 Z M 0.265625 16.5 " clip-rule="nonzero"/></clipPath><clipPath id="1540ea43ce"><path d="M 41.730469 36.890625 C 22.527344 41.394531 3.964844 32.265625 0.265625 16.5 L 69.804688 0.1875 C 73.503906 15.953125 60.933594 32.386719 41.730469 36.890625 Z M 41.730469 36.890625 " clip-rule="nonzero"/></clipPath><clipPath id="63aab03b9d"><rect x="0" width="71" y="0" height="39"/></clipPath><clipPath id="a4ac1d0459"><path d="M 106.828125 0 L 153.679688 0 L 153.679688 46.851562 L 106.828125 46.851562 Z M 106.828125 0 " clip-rule="nonzero"/></clipPath><clipPath id="934a9e6a71"><path d="M 130.253906 0 C 117.316406 0 106.828125 10.488281 106.828125 23.425781 C 106.828125 36.363281 117.316406 46.851562 130.253906 46.851562 C 143.191406 46.851562 153.679688 36.363281 153.679688 23.425781 C 153.679688 10.488281 143.191406 0 130.253906 0 Z M 130.253906 0 " clip-rule="nonzero"/></clipPath><clipPath id="400b47b3c8"><path d="M 0.828125 0 L 47.679688 0 L 47.679688 46.851562 L 0.828125 46.851562 Z M 0.828125 0 " clip-rule="nonzero"/></clipPath><clipPath id="61403a863e"><path d="M 24.253906 0 C 11.316406 0 0.828125 10.488281 0.828125 23.425781 C 0.828125 36.363281 11.316406 46.851562 24.253906 46.851562 C 37.191406 46.851562 47.679688 36.363281 47.679688 23.425781 C 47.679688 10.488281 37.191406 0 24.253906 0 Z M 24.253906 0 " clip-rule="nonzero"/></clipPath><clipPath id="472700c558"><rect x="0" width="48" y="0" height="47"/></clipPath></defs><g clip-path="url(#3b2ad4c46d)"><g transform="matrix(1, 0, 0, 1, 116, 23)"><g clip-path="url(#a1d725916c)"><g clip-path="url(#e051c3d852)"><path fill="#000000" d="M 0.0117188 0.425781 L 28.578125 0.425781 L 28.578125 164.339844 L 0.0117188 164.339844 Z M 0.0117188 0.425781 " fill-opacity="1" fill-rule="nonzero"/></g></g></g></g><g clip-path="url(#947a538ff9)"><g transform="matrix(1, 0, 0, 1, -0.000000000000000111, 69)"><g clip-path="url(#c567c69ca0)"><g clip-path="url(#afbf79c354)"><path fill="#000000" d="M 259.984375 0.773438 L 259.984375 17.652344 L 0.542969 17.652344 L 0.542969 0.773438 Z M 259.984375 0.773438 " fill-opacity="1" fill-rule="nonzero"/></g></g></g></g><g clip-path="url(#0af8a6178c)"><g transform="matrix(1, 0, 0, 1, 23, 66)"><g clip-path="url(#fc90f5b6b6)"><g clip-path="url(#39b3b7d6e8)"><path fill="#fcaf17" d="M 214.496094 0.347656 L 214.496094 24.085938 L 0.0429688 24.085938 L 0.0429688 0.347656 Z M 214.496094 0.347656 " fill-opacity="1" fill-rule="nonzero"/></g></g></g></g><g clip-path="url(#b35d7226f0)"><g clip-path="url(#5a8b29b32e)"><g transform="matrix(1, 0, 0, 1, 41, 86)"><g clip-path="url(#937f5aefca)"><g clip-path="url(#17caf965ec)"><g clip-path="url(#611ee2af5c)"><path fill="#fcaf17" d="M 0.648438 0.65625 L 178.023438 0.65625 L 178.023438 71.164062 L 0.648438 71.164062 Z M 0.648438 0.65625 " fill-opacity="1" fill-rule="nonzero"/></g></g></g></g></g></g><g clip-path="url(#41224066a2)"><g clip-path="url(#9183f8e4d8)"><g clip-path="url(#0f0622ffd4)"><g transform="matrix(1, 0, 0, 1, 29, 78)"><g clip-path="url(#f0cf099315)"><g clip-path="url(#bf4751ca34)"><g clip-path="url(#86a1720337)"><g clip-path="url(#321b48f498)"><path fill="#fcaf17" d="M 0.730469 0.21875 L 70.320312 16.515625 L 63.632812 45.066406 L -5.957031 28.769531 Z M 0.730469 0.21875 " fill-opacity="1" fill-rule="nonzero"/></g></g></g></g></g></g></g></g><g clip-path="url(#0d73626833)"><g clip-path="url(#02c554188c)"><g clip-path="url(#812a9f3794)"><g transform="matrix(1, 0, 0, 1, 161, 78)"><g clip-path="url(#63aab03b9d)"><g clip-path="url(#f9f11e3fd5)"><g clip-path="url(#43294ff817)"><g clip-path="url(#1540ea43ce)"><path fill="#fcaf17" d="M 0.265625 16.5 L 69.847656 0.179688 L 76.542969 28.726562 L 6.960938 45.046875 Z M 0.265625 16.5 " fill-opacity="1" fill-rule="nonzero"/></g></g></g></g></g></g></g></g><g clip-path="url(#a4ac1d0459)"><g clip-path="url(#934a9e6a71)"><g transform="matrix(1, 0, 0, 1, 106, 0)"><g clip-path="url(#472700c558)"><g clip-path="url(#400b47b3c8)"><g clip-path="url(#61403a863e)"><path fill="#000000" d="M 0.828125 0 L 47.679688 0 L 47.679688 46.851562 L 0.828125 46.851562 Z M 0.828125 0 " fill-opacity="1" fill-rule="nonzero"/></g></g></g></g></g></g></svg>